HIERARCHY
ROOT Hips
{
  OFFSET 196.326 95.9168 97.7182
  CHANNELS 6 Xposition Yposition Zposition Zrotation Xrotation Yrotation
  JOINT LeftUpLeg
  {
    OFFSET 8.64259 1.95398 -2.38835
    CHANNELS 3 Zrotation Xrotation Yrotation
    JOINT LeftLeg
    {
      OFFSET 43.7702 0 0
      CHANNELS 3 Zrotation Xrotation Yrotation
      JOINT LeftFoot
      {
        OFFSET 40.6238 0 0
        CHANNELS 3 Zrotation Xrotation Yrotation
        JOINT LeftToeBase
        {
          OFFSET 12.7242 0 0
          CHANNELS 3 Zrotation Xrotation Yrotation
          End Site
          {
            OFFSET 0 0 0
          }
        }
      }
    }
  }
  JOINT RightUpLeg
  {
    OFFSET -8.2249 1.95398 -2.59336
    CHANNELS 3 Zrotation Xrotation Yrotation
    JOINT RightLeg
    {
      OFFSET 43.5653 0 0
      CHANNELS 3 Zrotation Xrotation Yrotation
      JOINT RightFoot
      {
        OFFSET 40.6238 0 0
        CHANNELS 3 Zrotation Xrotation Yrotation
        JOINT RightToeBase
        {
          OFFSET 12.7242 0 0
          CHANNELS 3 Zrotation Xrotation Yrotation
          End Site
          {
            OFFSET 0 0 0
          }
        }
      }
    }
  }
  JOINT Spine
  {
    OFFSET 0.165834 0.87714 6.61349
    CHANNELS 3 Zrotation Xrotation Yrotation
    JOINT Spine1
    {
      OFFSET 7.38963 1.71661e-005 0
      CHANNELS 3 Zrotation Xrotation Yrotation
      JOINT Spine2
      {
        OFFSET 11.9445 1.14441e-005 0
        CHANNELS 3 Zrotation Xrotation Yrotation
        JOINT Spine3
        {
          OFFSET 14.7254 4.19617e-005 0
          CHANNELS 3 Zrotation Xrotation Yrotation
          JOINT Spine4
          {
            OFFSET 10.9679 0 0
            CHANNELS 3 Zrotation Xrotation Yrotation
            JOINT RightShoulder
            {
              OFFSET 2.46616 -1.6653 3.69651
              CHANNELS 3 Zrotation Xrotation Yrotation
              JOINT RightArm
              {
                OFFSET 13.0012 0 0
                CHANNELS 3 Zrotation Xrotation Yrotation
                JOINT RightForeArm
                {
                  OFFSET 28.7848 1.52588e-005 0
                  CHANNELS 3 Zrotation Xrotation Yrotation
                  JOINT RightHand
                  {
                    OFFSET 26.5688 1.52588e-005 0
                    CHANNELS 3 Zrotation Xrotation Yrotation
                    End Site
                    {
                      OFFSET 0 0 0
                    }
                  }
                }
              }
            }
            JOINT LeftShoulder
            {
              OFFSET 2.38034 -1.29275 -3.75231
              CHANNELS 3 Zrotation Xrotation Yrotation
              JOINT LeftArm
              {
                OFFSET 16.3182 6.10351e-005 0
                CHANNELS 3 Zrotation Xrotation Yrotation
                JOINT LeftForeArm
                {
                  OFFSET 27.0901 0 0
                  CHANNELS 3 Zrotation Xrotation Yrotation
                  JOINT LeftHand
                  {
                    OFFSET 24.5451 1.52588e-005 0
                    CHANNELS 3 Zrotation Xrotation Yrotation
                    End Site
                    {
                      OFFSET 0 0 0
                    }
                  }
                }
              }
            }
            JOINT Neck
            {
              OFFSET 5.0226 -0.0266342 0
              CHANNELS 3 Zrotation Xrotation Yrotation
              JOINT Head
              {
                OFFSET 6.69363 2.86102e-005 0
                CHANNELS 3 Zrotation Xrotation Yrotation
                End Site
                {
                  OFFSET 0 0 0
                }
              }
            }
          }
        }
      }
    }
  }
}
MOTION
Frames:	11
Frame Time:	0.0416667
-5.2001 91.5999 7.05315 60.1123 -45.0885 71.3218 -163.814 54.7324 87.0146 -35.822 16.6591 -7.30982 51.8261 -4.42843 7.66092 59.8636 32.7158 -2.48587 178.084 7.60655 92.7608 -59.2883 13.5255 -3.90168 34.2244 1.37549 2.25062 17.9379 -3.30022 16.2575 1.47957 8.16308 -89.4158 10.5373 3.21538 0.87506 -1.12991 3.25077 0.732556 -23.6884 2.80365 1.80155 -3.67571 2.80364 1.80154 84.989 -42.723 -110.955 33.5517 -14.9397 7.84661 -15.4301 7.45877 -98.0391 -27.499 -1.37109 0.954192 -97.2609 -40.0573 64.3748 -42.6928 -0.652931 34.8894 5.8515 -2.60236 -82.0974 35.5478 2.34006 2.69756 -0.757143 -2.98638 -7.10174 17.5839 -1.07152 4.32842 
1.58069 90.7514 13.6288 64.6606 -45.1349 72.863 -164.404 45.7703 85.5353 -38.5624 19.0122 -7.61275 58.4657 4.80881 17.4831 58.7635 23.313 -25.7531 175.532 15.3692 91.9729 -78.7373 18.39 -4.28607 35.9134 -0.830792 0.0317011 17.355 -3.57065 17.1563 0.952775 8.58226 -89.15 9.69287 2.2837 1.50753 -1.97683 2.34782 1.40552 -24.5152 1.72512 2.12412 -4.50253 1.72513 2.12414 82.4836 -46.5855 -113.476 32.4226 -15.1197 13.0449 -19.9433 -1.93053 -88.2657 -30.2916 -1.62252 1.75922 -99.0782 -42.0287 62.278 -37.4429 -2.80451 28.6107 7.57883 -2.24036 -84.8413 36.1644 2.84112 3.99351 -0.296629 -1.48183 -8.27067 17.8294 0.775231 5.00385 
8.34149 89.4583 19.8082 65.6856 -43.759 71.8122 -164.696 40.7861 82.6004 -44.1974 11.7536 -6.57511 66.4962 13.7047 19.0216 54.6506 19.8993 -28.065 172.249 27.9559 92.3314 -94.3583 20.7065 -5.21866 35.3299 -2.5913 -1.6613 22.4076 -2.70551 19.1965 0.377677 8.60115 -88.921 9.65586 1.24046 2.04297 -2.016 1.32916 1.98641 -24.5397 0.569284 2.32117 -4.52709 0.569303 2.32118 81.5988 -48.4151 -114.124 33.8293 -16.2258 19.3107 -16.2052 -1.63034 -76.1527 -31.6028 -1.65291 1.53603 -100.776 -42.401 59.7865 -32.9214 -4.58127 22.0059 10.3002 -2.25167 -89.3405 36.0721 3.57561 6.1236 1.61099 -0.543475 -8.54224 16.0828 1.81425 5.05494 
14.6547 88.2655 25.7013 64.3835 -39.9466 69.8419 -167.546 38.0643 80.389 -46.5441 12.8046 -4.54359 66.1517 16.9058 24.0805 61.3967 25.5442 -24.6607 167.65 43.6815 95.7578 -104.691 18.0055 -6.19555 33.5925 -2.1252 -1.30471 28.0661 -1.19326 16.4106 -0.318978 8.37923 -88.8153 10.1105 -0.0958627 2.35992 -1.5626 0.00807834 2.36185 -24.0821 -0.800508 2.22215 -4.06942 -0.800489 2.22216 80.0375 -49.0639 -116.213 36.3967 -15.5846 28.1668 -11.638 -3.51573 -69.7764 -32.3382 -1.36658 0.208981 -100.208 -40.2964 59.741 -29.5941 -3.2594 13.8528 11.2183 -2.72196 -94.1619 36.589 4.22848 7.79883 4.40274 0.140007 -8.36058 14.1865 2.46122 4.44347 
21.8262 88.2898 31.922 64.7074 -37.7622 70.5152 -170.81 30.8562 82.0475 -43.4906 17.7731 -3.57579 63.7602 17.1084 27.6654 68.0956 30.8906 -23.3005 164.064 54.4702 100.429 -106.895 16.2165 -6.3403 36.9585 -1.45373 -0.688898 31.9765 -0.318329 14.7763 -0.735285 8.28423 -88.9617 10.3104 -0.989949 2.14711 -1.36206 -0.894506 2.18859 -23.8902 -1.5894 1.7505 -3.8775 -1.58941 1.75049 78.867 -49.9893 -117.568 38.4044 -15.0725 37.6337 -10.0623 -4.47375 -67.9165 -30.295 -1.1785 -0.219826 -97.7935 -37.818 62.5622 -27.9441 -3.15275 5.77856 12.0168 -3.50458 -100.963 40.8287 4.22383 6.48929 4.13218 0.859997 -8.3059 13.961 3.22346 4.93815 
29.2855 89.435 38.5992 66.2676 -39.0927 72.7862 -171.988 20.6225 85.4254 -38.1126 19.6586 -2.87253 62.3613 13.613 23.4092 71.1323 33.8445 -21.7238 164.44 60.2328 103.51 -102.306 13.5364 -5.64112 41.7798 -0.589741 0.0286472 31.0406 -0.510165 14.9966 -0.852434 8.27744 -89.1737 10.3262 -1.32019 1.75616 -1.34537 -1.24161 1.81254 -23.8802 -1.78689 1.27825 -3.86751 -1.78688 1.27825 79.2247 -50.6842 -116.756 40.6031 -16.3339 46.0595 -10.4345 -4.9281 -68.3703 -26.5416 -0.996067 -0.409175 -95.2531 -35.7339 65.9802 -28.7903 -5.26169 2.65921 12.7611 -5.33597 -112.561 41.2686 4.45356 6.95254 1.64559 1.94782 -8.52463 13.814 4.43782 6.52394 
37.4109 91.3747 45.4881 66.7687 -39.6729 75.4059 -172.77 10.8844 90.9025 -28.8798 22.4052 -1.47213 55.3731 2.60355 11.9638 76.2593 40.2963 -16.8529 164.628 63.1612 105.507 -91.79 9.36751 -4.06038 43.2285 1.0181 1.38193 31.9841 -0.233699 12.3184 -1.06036 8.14539 -89.4964 10.5934 -1.88028 1.17103 -1.07677 -1.82693 1.25265 -23.6217 -2.14526 0.551613 -3.60904 -2.14526 0.551603 78.5791 -49.8978 -118.028 44.0117 -16.3737 53.7815 -9.45079 -4.34205 -69.1231 -26.0127 -0.928351 -0.686105 -92.7893 -34.0228 69.6226 -29.7052 -5.763 1.34492 13.0317 -7.97935 -123.255 37.5026 4.07421 7.0771 -1.60389 3.63102 -7.92395 14.1634 6.01782 7.57668 
45.6728 93.07 52.5832 68.2449 -38.8492 77.7211 -172.62 -0.438994 92.432 -15.8504 26.0141 -0.15184 39.0789 -10.2046 1.07234 73.531 38.5612 -15.959 165.485 62.7651 103.764 -77.7151 8.85187 -1.23945 44.3796 1.91222 2.12588 29.0862 -0.79243 13.3708 -1.39757 8.09288 -89.8076 10.6977 -2.69461 0.629185 -0.970637 -2.66428 0.747231 -23.5282 -2.75904 -0.210367 -3.5156 -2.75902 -0.210358 78.2085 -48.3354 -119.249 46.8747 -14.4192 59.7234 -9.29426 -3.54513 -70.581 -24.6679 -0.706395 -1.5779 -91.6532 -33.5434 71.484 -30.0545 -5.39302 1.62894 11.4445 -10.2113 -133.38 34.4533 3.43939 6.20623 -4.55752 5.07031 -6.02729 14.1733 7.05488 7.50528 
53.988 94.5923 60.4293 68.3602 -37.7619 78.4082 -173.389 -4.60047 93.9469 -17.824 31.2239 0.983366 35.9926 -12.3303 3.0047 37.8793 9.79934 -6.27215 169.678 60.7292 99.4078 -60.3417 7.4312 1.80043 42.5598 2.82561 3.02874 23.9462 -1.83752 14.5102 -1.65413 7.95679 -90.0333 10.967 -3.30842 0.247978 -0.699808 -3.29429 0.393494 -23.2677 -3.22981 -0.758864 -3.25501 -3.22984 -0.75889 79.3426 -46.1826 -118.483 49.1943 -12.612 62.808 -10.9282 -2.94095 -72.066 -22.7358 -0.435633 -2.70077 -91.4315 -34.0712 72.0658 -29.9796 -2.89622 2.18802 9.95064 -12.419 -140.935 31.9556 2.93552 5.41249 -7.06044 5.88258 -6.18923 14.6854 8.26505 9.97786 
61.8733 95.0465 68.1646 66.7502 -37.3939 74.9771 -176.489 -2.91337 90.4382 -31.983 24.3472 2.36228 39.2094 -9.75095 4.17005 35.1059 7.00396 -6.56427 177.447 58.9927 92.0713 -42.6087 5.75778 2.63528 44.3838 3.16675 3.23044 21.1975 -2.36613 14.415 -1.78789 7.66856 -89.8798 11.5513 -3.50057 0.597465 -0.115143 -3.47088 0.751124 -22.688 -3.51809 -0.483563 -2.67539 -3.5181 -0.483573 80.0021 -45.8248 -117.625 49.1894 -10.6468 63.8924 -11.4704 -1.73767 -74.5668 -22.4525 -0.374712 -3.01795 -90.7847 -34.4855 73.3588 -31.8836 4.36644 2.82194 11.6893 -17.0388 -141.491 30.6671 3.00733 6.04372 -8.76057 6.23994 -5.64841 16.0807 8.66116 10.1191 
69.2597 95.203 75.778 67.1559 -38.2055 72.2847 -177.362 0.393343 89.2433 -46.797 19.4676 2.07582 37.5853 -11.0523 1.75475 33.9419 5.82131 -4.51039 -177.487 54.0513 88.0183 -27.897 6.41833 1.27776 46.8896 3.32191 3.17838 21.1312 -2.2567 13.5195 -1.64197 7.63698 -89.656 11.6174 -3.10498 1.00844 -0.0503799 -3.05757 1.14421 -22.6152 -3.26437 0.027678 -2.6026 -3.26436 0.0276854 80.7201 -46.423 -116.265 46.8983 -8.24368 61.6929 -10.1242 -0.694813 -76.5125 -22.3693 -0.444225 -2.71148 -91.9075 -35.3405 71.653 -34.1153 8.7574 5.49068 13.3064 -17.3865 -134.919 31.4381 3.14149 6.23284 -9.10804 5.77028 -4.98134 15.6437 8.04862 9.88907 
